<svg width="319" height="72" viewBox="0 0 319 72" fill="none" xmlns="http://www.w3.org/2000/svg">
<circle cx="10.7679" cy="10.7679" r="10.7679" fill="black"/>
<circle cx="58.625" cy="10.7679" r="10.7679" fill="black"/>
<path d="M64.1072 38.2857C64.1072 53.849 50.959 66.5 34.6964 66.5C18.4339 66.5 5.28571 53.849 5.28571 38.2857C5.28571 22.7224 18.4339 10.0714 34.6964 10.0714C50.959 10.0714 64.1072 22.7224 64.1072 38.2857Z" fill="white" stroke="black"/>
<ellipse cx="15.3348" cy="37.7684" rx="3.36496" ry="4.78572" transform="rotate(-45 15.3348 37.7684)" fill="black"/>
<ellipse cx="25.8041" cy="27.2991" rx="3.36496" ry="4.78572" transform="rotate(-45 25.8041 27.2991)" fill="black"/>
<rect x="12.4266" y="33.9084" width="13.4598" height="9.57143" transform="rotate(-45 12.4266 33.9084)" fill="black"/>
<ellipse cx="44.0491" cy="27.2991" rx="3.36496" ry="4.78572" transform="rotate(45 44.0491 27.2991)" fill="black"/>
<ellipse cx="54.5184" cy="37.7685" rx="3.36496" ry="4.78572" transform="rotate(45 54.5184 37.7685)" fill="black"/>
<rect x="47.9091" y="24.391" width="13.4598" height="9.57143" transform="rotate(45 47.9091 24.391)" fill="black"/>
<path d="M33.8295 46.5176C34.4661 46.0146 36.5139 44.3003 36.4385 46.2599C36.4076 47.0641 35.3399 47.3873 34.6992 47.3873" stroke="black" stroke-linecap="round" stroke-linejoin="round"/>
<path d="M35.1339 47.5322C35.1339 48.9065 35.1339 50.2808 35.1339 51.655C35.1339 52.5201 35.1395 52.6804 34.4737 53.2574C33.2933 54.2804 31.816 54.5727 30.2703 54.3767C29.0112 54.2171 26.6728 54.2901 25.7127 53.3299" stroke="black" stroke-linecap="round" stroke-linejoin="round"/>
<path d="M34.8441 53.6197C36.9507 54.3291 38.8435 55.0397 41.1088 54.4572C41.8569 54.2648 42.5514 53.4748 43.2508 53.4748" stroke="black" stroke-linecap="round" stroke-linejoin="round"/>
<path d="M117.84 45V17H127.64C129.827 17 131.64 17.3733 133.08 18.12C134.52 18.84 135.587 19.84 136.28 21.12C137 22.3733 137.36 23.8 137.36 25.4C137.36 26.92 137.013 28.32 136.32 29.6C135.653 30.8533 134.6 31.8533 133.16 32.6C131.72 33.3467 129.88 33.72 127.64 33.72H122.08V45H117.84ZM122.08 30.24H127.44C129.44 30.24 130.867 29.8133 131.72 28.96C132.6 28.08 133.04 26.8933 133.04 25.4C133.04 23.8533 132.6 22.6533 131.72 21.8C130.867 20.92 129.44 20.48 127.44 20.48H122.08V30.24ZM149.577 45.48C147.684 45.48 145.977 45.0533 144.457 44.2C142.964 43.32 141.777 42.1067 140.897 40.56C140.017 38.9867 139.577 37.16 139.577 35.08C139.577 33 140.017 31.1867 140.897 29.64C141.804 28.0667 143.017 26.8533 144.537 26C146.057 25.12 147.751 24.68 149.617 24.68C151.511 24.68 153.204 25.12 154.697 26C156.217 26.8533 157.417 28.0667 158.297 29.64C159.204 31.1867 159.657 33 159.657 35.08C159.657 37.16 159.204 38.9867 158.297 40.56C157.417 42.1067 156.217 43.32 154.697 44.2C153.177 45.0533 151.471 45.48 149.577 45.48ZM149.577 41.84C150.591 41.84 151.524 41.5867 152.377 41.08C153.257 40.5733 153.964 39.8267 154.497 38.84C155.031 37.8267 155.297 36.5733 155.297 35.08C155.297 33.5867 155.031 32.3467 154.497 31.36C153.991 30.3467 153.297 29.5867 152.417 29.08C151.564 28.5733 150.631 28.32 149.617 28.32C148.604 28.32 147.657 28.5733 146.777 29.08C145.924 29.5867 145.231 30.3467 144.697 31.36C144.164 32.3467 143.897 33.5867 143.897 35.08C143.897 36.5733 144.164 37.8267 144.697 38.84C145.231 39.8267 145.924 40.5733 146.777 41.08C147.631 41.5867 148.564 41.84 149.577 41.84ZM173.643 45.48C171.696 45.48 169.949 45.04 168.403 44.16C166.883 43.28 165.683 42.0667 164.803 40.52C163.949 38.9467 163.523 37.1333 163.523 35.08C163.523 33.0267 163.949 31.2267 164.803 29.68C165.683 28.1067 166.883 26.88 168.403 26C169.949 25.12 171.696 24.68 173.643 24.68C176.096 24.68 178.149 25.32 179.803 26.6C181.483 27.88 182.563 29.6133 183.043 31.8H178.603C178.336 30.7067 177.749 29.8533 176.843 29.24C175.936 28.6267 174.869 28.32 173.643 28.32C172.603 28.32 171.643 28.5867 170.763 29.12C169.883 29.6267 169.176 30.3867 168.643 31.4C168.109 32.3867 167.843 33.6133 167.843 35.08C167.843 36.5467 168.109 37.7867 168.643 38.8C169.176 39.7867 169.883 40.5467 170.763 41.08C171.643 41.6133 172.603 41.88 173.643 41.88C174.869 41.88 175.936 41.5733 176.843 40.96C177.749 40.3467 178.336 39.48 178.603 38.36H183.043C182.589 40.4933 181.523 42.2133 179.843 43.52C178.163 44.8267 176.096 45.48 173.643 45.48ZM196.921 45.48C195.028 45.48 193.321 45.0533 191.801 44.2C190.308 43.32 189.121 42.1067 188.241 40.56C187.361 38.9867 186.921 37.16 186.921 35.08C186.921 33 187.361 31.1867 188.241 29.64C189.148 28.0667 190.361 26.8533 191.881 26C193.401 25.12 195.094 24.68 196.961 24.68C198.854 24.68 200.548 25.12 202.041 26C203.561 26.8533 204.761 28.0667 205.641 29.64C206.548 31.1867 207.001 33 207.001 35.08C207.001 37.16 206.548 38.9867 205.641 40.56C204.761 42.1067 203.561 43.32 202.041 44.2C200.521 45.0533 198.814 45.48 196.921 45.48ZM196.921 41.84C197.934 41.84 198.868 41.5867 199.721 41.08C200.601 40.5733 201.308 39.8267 201.841 38.84C202.374 37.8267 202.641 36.5733 202.641 35.08C202.641 33.5867 202.374 32.3467 201.841 31.36C201.334 30.3467 200.641 29.5867 199.761 29.08C198.908 28.5733 197.974 28.32 196.961 28.32C195.948 28.32 195.001 28.5733 194.121 29.08C193.268 29.5867 192.574 30.3467 192.041 31.36C191.508 32.3467 191.241 33.5867 191.241 35.08C191.241 36.5733 191.508 37.8267 192.041 38.84C192.574 39.8267 193.268 40.5733 194.121 41.08C194.974 41.5867 195.908 41.84 196.921 41.84ZM221.824 45V17H226.064V41.64H238.784V45H221.824ZM251.608 45.48C249.715 45.48 248.008 45.0533 246.488 44.2C244.995 43.32 243.808 42.1067 242.928 40.56C242.048 38.9867 241.608 37.16 241.608 35.08C241.608 33 242.048 31.1867 242.928 29.64C243.835 28.0667 245.048 26.8533 246.568 26C248.088 25.12 249.782 24.68 251.648 24.68C253.542 24.68 255.235 25.12 256.728 26C258.248 26.8533 259.448 28.0667 260.328 29.64C261.235 31.1867 261.688 33 261.688 35.08C261.688 37.16 261.235 38.9867 260.328 40.56C259.448 42.1067 258.248 43.32 256.728 44.2C255.208 45.0533 253.502 45.48 251.608 45.48ZM251.608 41.84C252.622 41.84 253.555 41.5867 254.408 41.08C255.288 40.5733 255.995 39.8267 256.528 38.84C257.062 37.8267 257.328 36.5733 257.328 35.08C257.328 33.5867 257.062 32.3467 256.528 31.36C256.022 30.3467 255.328 29.5867 254.448 29.08C253.595 28.5733 252.662 28.32 251.648 28.32C250.635 28.32 249.688 28.5733 248.808 29.08C247.955 29.5867 247.262 30.3467 246.728 31.36C246.195 32.3467 245.928 33.5867 245.928 35.08C245.928 36.5733 246.195 37.8267 246.728 38.84C247.262 39.8267 247.955 40.5733 248.808 41.08C249.662 41.5867 250.595 41.84 251.608 41.84ZM275.674 45.48C273.727 45.48 271.98 45.04 270.434 44.16C268.914 43.28 267.714 42.0667 266.834 40.52C265.98 38.9467 265.554 37.1333 265.554 35.08C265.554 33.0267 265.98 31.2267 266.834 29.68C267.714 28.1067 268.914 26.88 270.434 26C271.98 25.12 273.727 24.68 275.674 24.68C278.127 24.68 280.18 25.32 281.834 26.6C283.514 27.88 284.594 29.6133 285.074 31.8H280.634C280.367 30.7067 279.78 29.8533 278.874 29.24C277.967 28.6267 276.9 28.32 275.674 28.32C274.634 28.32 273.674 28.5867 272.794 29.12C271.914 29.6267 271.207 30.3867 270.674 31.4C270.14 32.3867 269.874 33.6133 269.874 35.08C269.874 36.5467 270.14 37.7867 270.674 38.8C271.207 39.7867 271.914 40.5467 272.794 41.08C273.674 41.6133 274.634 41.88 275.674 41.88C276.9 41.88 277.967 41.5733 278.874 40.96C279.78 40.3467 280.367 39.48 280.634 38.36H285.074C284.62 40.4933 283.554 42.2133 281.874 43.52C280.194 44.8267 278.127 45.48 275.674 45.48ZM298.952 45.48C297.059 45.48 295.352 45.0533 293.832 44.2C292.339 43.32 291.152 42.1067 290.272 40.56C289.392 38.9867 288.952 37.16 288.952 35.08C288.952 33 289.392 31.1867 290.272 29.64C291.179 28.0667 292.392 26.8533 293.912 26C295.432 25.12 297.126 24.68 298.992 24.68C300.886 24.68 302.579 25.12 304.072 26C305.592 26.8533 306.792 28.0667 307.672 29.64C308.579 31.1867 309.032 33 309.032 35.08C309.032 37.16 308.579 38.9867 307.672 40.56C306.792 42.1067 305.592 43.32 304.072 44.2C302.552 45.0533 300.846 45.48 298.952 45.48ZM298.952 41.84C299.966 41.84 300.899 41.5867 301.752 41.08C302.632 40.5733 303.339 39.8267 303.872 38.84C304.406 37.8267 304.672 36.5733 304.672 35.08C304.672 33.5867 304.406 32.3467 303.872 31.36C303.366 30.3467 302.672 29.5867 301.792 29.08C300.939 28.5733 300.006 28.32 298.992 28.32C297.979 28.32 297.032 28.5733 296.152 29.08C295.299 29.5867 294.606 30.3467 294.072 31.36C293.539 32.3467 293.272 33.5867 293.272 35.08C293.272 36.5733 293.539 37.8267 294.072 38.84C294.606 39.8267 295.299 40.5733 296.152 41.08C297.006 41.5867 297.939 41.84 298.952 41.84Z" fill="black"/>
</svg>
